<?xml version="1.0" encoding="UTF-8" standalone="no"?><!-- Generator: Gravit.io --><svg xmlns="http://www.w3.org/2000/svg" xmlns:xlink="http://www.w3.org/1999/xlink" style="isolation:isolate" viewBox="0 0 512 512" width="512pt" height="512pt"><defs><clipPath id="_clipPath_HQTeWeUi8Mywviqn7gbmuMLreDflgbqR"><rect width="512" height="512"/></clipPath></defs><g clip-path="url(#_clipPath_HQTeWeUi8Mywviqn7gbmuMLreDflgbqR)"><clipPath id="_clipPath_L7nLEEhCONgx4xMp8mJLMUo9FXKIJi0R"><path d=" M 523 256 C 523 385.787 417.787 491 288 491 C 158.213 491 53 385.787 53 256 C 53 126.213 158.213 21 288 21 C 417.787 21 523 126.213 523 256 Z " fill="rgb(255,255,255)"/></clipPath><g clip-path="url(#_clipPath_L7nLEEhCONgx4xMp8mJLMUo9FXKIJi0R)"><path d=" M 443.406 106.127 C 432.829 110.862 427.848 122.946 421.036 131.797 C 412.864 146.278 401.928 160.974 400.878 178.039 C 400.912 184.219 408.885 185.14 411.533 180.011 C 426.634 159.415 438.008 136.069 447.302 112.37 C 448.548 109.321 447.09 105.676 443.406 106.127 L 443.406 106.127 Z " fill-rule="evenodd" fill="rgb(255,255,255)"/><path d=" M 392.936 94.344 C 386.578 105.053 386.266 118.699 383.408 130.77 C 382.04 144.043 377.436 158.162 381.295 171.326 C 384.602 177.08 390.745 171.315 391.059 166.632 C 396.724 144.514 400.621 121.057 399.133 98.146 C 398.663 95.39 395.236 90.541 392.936 94.344 Z " fill-rule="evenodd" fill="rgb(255,255,255)"/><path d=" M -318.629 68.067 C -318.86 68.156 -318.755 68.311 -318.976 68.415 C -319.399 68.647 -320.473 69.243 -320.716 69.807 C -320.996 70.46 -320.817 71.411 -320.716 71.896 C -320.432 73.303 -320.386 73.451 -319.673 74.332 C -318.597 75.66 -317.232 76.575 -315.148 78.16 C -311.077 81.26 -304.584 85.47 -296.005 90.342 C -278.847 100.087 -252.699 112.906 -218.737 126.888 C -185.19 140.698 -145.128 165.316 -114.321 187.798 C -98.918 199.038 -85.728 209.561 -77.079 218.078 C -72.749 222.342 -69.51 226.038 -67.682 228.868 C -66.942 230.012 -66.76 230.996 -66.638 231.304 C -66.183 232.309 -66.321 233.557 -66.985 234.437 C -88.682 265.567 -101.288 303.302 -92.393 366.349 C -92.338 366.946 -92.46 367.56 -92.74 368.089 C -92.852 368.214 -92.964 368.332 -93.087 368.438 C -93.188 368.682 -93.21 369.015 -93.435 369.482 C -93.985 370.623 -95.064 372.17 -96.567 374.007 C -99.421 377.495 -103.241 381.629 -107.357 385.841 C -111.48 390.059 -115.773 394.408 -118.842 399.067 C -121.914 403.729 -123.801 408.468 -123.019 413.685 C -122.709 415.568 -120.758 418.209 -119.19 418.906 C -117.126 419.823 -115.54 419.907 -113.274 419.602 C -108.869 419.008 -103.729 417.196 -98.655 415.077 C -93.684 413.001 -88.913 410.585 -85.081 409.16 C -84.626 409.049 -84.145 409.049 -83.689 409.16 C -83.207 409.165 -82.726 409.285 -82.297 409.509 C -82.029 409.702 -81.794 409.937 -81.6 410.205 C -81.256 410.6 -81.012 411.084 -80.904 411.597 C -80.848 411.942 -80.848 412.297 -80.904 412.642 C -81.213 414.048 -81.417 415.636 -81.947 417.514 C -83.503 423.025 -85.8 429.766 -87.864 436.309 C -89.931 442.86 -91.912 449.206 -92.737 454.408 C -93.153 457.037 -93.438 459.179 -93.084 461.369 C -92.796 463.152 -91.319 465.486 -89.256 466.242 C -89.088 466.298 -89.426 466.539 -89.256 466.59 C -87.254 467.185 -87.308 466.844 -85.775 466.242 C -84.698 465.819 -83.478 465.23 -82.295 464.502 C -79.932 463.047 -77.172 460.78 -73.941 458.237 C -67.502 453.167 -59.473 446.327 -51.666 439.442 C -43.86 432.558 -36.355 425.745 -30.434 420.647 C -27.473 418.096 -24.947 416.117 -23.125 414.73 C -22.698 414.404 -22.306 414.193 -22.082 414.034 C -21.592 413.63 -20.975 413.383 -20.342 413.337 C -20.111 413.315 -19.876 413.315 -19.645 413.337 C 27.651 427.185 81.313 429.176 123.753 427.259 C 145.31 426.286 163.925 424.101 177.353 422.387 C 184.07 421.528 189.551 420.925 193.364 420.298 C 195.268 419.985 196.741 419.947 197.845 420.037 C 203.103 420.214 207.421 423.175 212.158 425.171 C 220.591 428.991 231.875 434.142 243.483 439.093 C 255.091 444.044 267.015 448.685 276.548 451.971 C 281.324 453.617 285.367 455.087 288.73 455.8 C 290.423 456.159 291.916 456.106 293.255 456.148 C 294.891 456.204 295.492 456.482 297.084 455.452 C 297.195 455.385 297.204 455.3 297.431 455.103 C 302.8 449.289 303.11 441.564 300.563 435.264 C 297.902 428.683 293.018 422.344 287.685 416.469 C 282.364 410.608 276.903 405.368 273.415 400.807 C 272.228 399.254 271.744 398.116 271.327 397.326 C 271.044 396.796 270.922 396.184 270.98 395.586 C 271.125 393.932 272.814 392.58 274.46 392.802 C 275.975 393.06 277.65 393.216 280.029 393.846 C 286.581 395.583 295.158 398.35 303.697 401.155 C 312.234 403.961 320.597 406.878 327.364 408.464 C 330.776 409.265 333.571 409.828 336.066 409.857 C 337.401 409.868 338.365 409.577 339.546 409.16 C 340.398 408.86 341.852 407.938 342.331 406.724 C 342.386 406.576 342.626 406.876 342.678 406.724 C 344.294 401.847 342.427 396.983 339.545 391.758 C 336.705 386.609 332.488 381.256 328.059 376.095 C 323.635 370.94 319.074 366.003 315.181 361.825 C 313.223 359.724 311.337 357.516 309.961 355.908 C 308.822 354.578 308.127 354 307.524 353.124 C 307.513 353.113 307.558 352.81 307.524 352.776 C 307.502 352.731 307.204 352.82 307.177 352.776 C 307.155 352.742 307.199 352.463 307.177 352.427 C 307.061 352.434 306.945 352.434 306.83 352.427 C 304.858 348.86 303.836 344.126 304.394 339.549 C 304.939 335.071 307.245 330.613 312.399 327.019 C 313.154 326.493 314.075 326.05 315.531 325.279 C 316.988 324.508 318.917 323.541 321.1 322.495 C 325.415 320.426 330.751 317.818 337.111 314.838 C 349.825 308.88 365.614 301.342 380.966 292.91 C 396.322 284.476 411.146 274.985 422.036 265.414 C 432.942 255.829 440.555 245.942 439.091 235.481 C 436.778 218.618 425.458 205.833 410.55 196.151 C 395.591 186.436 376.595 179.811 357.994 174.92 C 339.397 170.03 321.321 166.625 307.526 164.478 C 300.632 163.406 294.872 162.783 290.82 162.042 C 289.645 161.828 289.038 161.491 288.383 161.346 C 288.018 161.29 287.662 161.175 287.34 160.998 C 286.915 160.741 286.552 160.379 286.296 159.953 C 286.073 159.525 285.954 159.044 285.949 158.561 C 285.95 158.38 285.948 158.11 285.949 157.864 C 285.961 155.231 286.005 151.67 285.949 147.423 C 285.836 138.919 285.293 127.958 283.513 117.49 C 281.725 106.983 278.853 97.135 273.071 90.342 C 267.57 83.878 258.091 80.975 247.315 85.121 C 240.17 87.831 235.793 94.329 234.089 101.48 C 232.346 108.799 232.601 117.165 233.742 125.495 C 234.88 133.809 236.811 141.919 238.615 148.467 C 240.176 154.132 241.56 157.727 242.096 159.605 C 242.151 159.95 242.151 160.304 242.096 160.649 C 242.051 161.282 241.804 161.9 241.399 162.389 C 241.288 162.514 241.176 162.632 241.052 162.738 C 240.562 163.142 239.945 163.388 239.312 163.434 C 238.052 163.512 236.795 163.412 235.483 163.086 C 234.616 162.872 233.495 162.234 233.743 162.389 C 233.318 162.133 232.955 161.771 232.7 161.345 C 232.778 161.489 232.644 161.189 232.353 160.649 C 232.057 160.109 231.761 159.174 231.309 158.212 C 230.296 156.06 228.872 153.373 227.481 150.207 C 224.71 143.901 221.35 136.239 217.387 128.976 C 213.409 121.685 209.004 114.743 203.813 110.181 C 201.219 107.901 198.544 106.065 195.46 105.308 C 192.483 104.577 188.795 105.161 185.714 106.7 C 177.76 111.115 173.19 118.304 171.444 125.843 C 169.671 133.498 170.497 141.48 171.791 149.163 C 173.085 156.831 175.014 164.159 176.316 169.35 C 176.864 171.537 177.193 173.127 177.359 174.223 C 177.426 175.309 176.846 178.787 176.581 179.837 C 173.025 194.012 165.297 202.948 158.831 210.238 C 157.152 212.129 154.338 212.827 150.21 213.901 C 146.096 214.971 140.439 215.627 134.2 215.641 C 121.725 215.675 105.882 213.752 89.301 211.116 C 56.14 205.845 20.792 197.598 2.635 196.498 C -10.984 195.694 -24.094 201.066 -33.911 205.896 C -38.811 208.307 -42.795 210.628 -45.744 212.161 C -46.416 212.51 -46.797 212.348 -47.137 212.509 C -47.248 212.634 -47.36 212.751 -47.484 212.857 C -48.548 213.221 -49.806 212.946 -50.616 212.161 C -82.754 180.408 -145.854 127.77 -215.942 109.833 C -215.975 109.823 -216.259 109.842 -216.289 109.833 C -216.4 109.799 -216.211 109.514 -216.289 109.485 C -235.804 104.162 -260.428 93.813 -280.331 84.773 C -290.312 80.239 -298.883 76.332 -305.391 73.287 C -308.644 71.765 -311.43 70.315 -313.396 69.458 C -314.383 69.028 -315.146 68.665 -315.832 68.414 C -316.205 68.278 -316.546 68.152 -316.876 68.066 C -317.712 67.847 -317.321 68.043 -317.223 68.066 C -317.529 68.032 -318.573 68.061 -318.266 68.066 C -318.504 68.133 -318.383 67.977 -318.613 68.066 L -318.622 68.066 L -318.622 68.066 L -318.629 68.067 Z  M -96.57 369.83 C -96.492 369.863 -96.247 369.83 -96.223 369.83 C -96.339 369.836 -96.455 369.836 -96.57 369.83 Z " fill-rule="evenodd" fill="rgb(255,255,255)"/></g></g></svg>